<mxfile host="Electron" agent="Mozilla/5.0 (Windows NT 10.0; Win64; x64) AppleWebKit/537.36 (KHTML, like Gecko) draw.io/24.7.17 Chrome/128.0.6613.36 Electron/32.0.1 Safari/537.36" version="24.7.17">
  <diagram name="Página-1" id="7OusXdY_WYZLwbGiMb43">
    <mxGraphModel dx="2624" dy="1431" grid="1" gridSize="10" guides="1" tooltips="1" connect="1" arrows="1" fold="1" page="1" pageScale="1" pageWidth="827" pageHeight="1169" math="0" shadow="0">
      <root>
        <mxCell id="0" />
        <mxCell id="1" parent="0" />
        <mxCell id="cVUXGslMiK5kIVUqyIHW-1" value="" style="group;strokeColor=none;" vertex="1" connectable="0" parent="1">
          <mxGeometry x="200" y="20" width="260" height="230" as="geometry" />
        </mxCell>
        <mxCell id="cVUXGslMiK5kIVUqyIHW-2" value="&lt;b&gt;&lt;font style=&quot;font-size: 16px;&quot;&gt;localhost:??&lt;/font&gt;&lt;/b&gt;&lt;div&gt;&lt;b&gt;&lt;br&gt;&lt;/b&gt;&lt;/div&gt;&lt;div&gt;&lt;br&gt;&lt;/div&gt;&lt;div&gt;&lt;b&gt;&lt;br&gt;&lt;/b&gt;&lt;/div&gt;&lt;div&gt;&lt;b&gt;&lt;br&gt;&lt;/b&gt;&lt;/div&gt;&lt;div&gt;&lt;b&gt;&lt;br&gt;&lt;/b&gt;&lt;/div&gt;&lt;div&gt;&lt;b&gt;&lt;br&gt;&lt;/b&gt;&lt;/div&gt;&lt;div&gt;&lt;b&gt;&lt;br&gt;&lt;/b&gt;&lt;/div&gt;&lt;div style=&quot;&quot;&gt;&lt;b&gt;&lt;br&gt;&lt;/b&gt;&lt;/div&gt;&lt;div style=&quot;&quot;&gt;&lt;b&gt;&lt;br&gt;&lt;/b&gt;&lt;/div&gt;&lt;div style=&quot;&quot;&gt;&lt;b&gt;&lt;br&gt;&lt;/b&gt;&lt;/div&gt;&lt;div style=&quot;&quot;&gt;&lt;b&gt;&lt;br&gt;&lt;/b&gt;&lt;/div&gt;&lt;div style=&quot;&quot;&gt;&lt;b&gt;&lt;br&gt;&lt;/b&gt;&lt;/div&gt;&lt;div style=&quot;&quot;&gt;&lt;br&gt;&lt;/div&gt;" style="shape=cube;whiteSpace=wrap;html=1;boundedLbl=1;backgroundOutline=1;darkOpacity=0.05;darkOpacity2=0.1;size=10;rotation=0;shadow=0;flipV=0;flipH=1;fillColor=#1ba1e2;fontColor=#ffffff;strokeColor=#000000;" vertex="1" parent="cVUXGslMiK5kIVUqyIHW-1">
          <mxGeometry width="260" height="230" as="geometry" />
        </mxCell>
        <mxCell id="cVUXGslMiK5kIVUqyIHW-3" value="&lt;div style=&quot;&quot;&gt;&lt;br&gt;&lt;/div&gt;" style="html=1;dropTarget=0;whiteSpace=wrap;fillColor=#1ba1e2;fontColor=#ffffff;strokeColor=#000000;align=center;" vertex="1" parent="cVUXGslMiK5kIVUqyIHW-1">
          <mxGeometry x="30" y="72.5" width="193.5" height="130" as="geometry" />
        </mxCell>
        <mxCell id="cVUXGslMiK5kIVUqyIHW-4" value="" style="shape=module;jettyWidth=8;jettyHeight=4;fillColor=#1ba1e2;fontColor=#ffffff;strokeColor=#000000;" vertex="1" parent="cVUXGslMiK5kIVUqyIHW-3">
          <mxGeometry x="1" width="20" height="20" relative="1" as="geometry">
            <mxPoint x="-27" y="7" as="offset" />
          </mxGeometry>
        </mxCell>
        <mxCell id="cVUXGslMiK5kIVUqyIHW-5" value="&lt;div&gt;&amp;lt;&amp;lt;component&amp;gt;&amp;gt;&lt;div&gt;&lt;span style=&quot;background-color: initial;&quot;&gt;&lt;b&gt;browser&lt;/b&gt;&lt;/span&gt;&lt;/div&gt;&lt;/div&gt;" style="text;html=1;align=center;verticalAlign=middle;whiteSpace=wrap;rounded=0;fillColor=none;strokeColor=none;" vertex="1" parent="cVUXGslMiK5kIVUqyIHW-1">
          <mxGeometry x="86.75" y="67.5" width="80" height="50" as="geometry" />
        </mxCell>
        <mxCell id="cVUXGslMiK5kIVUqyIHW-6" value="«component»&lt;br&gt;&lt;b&gt;Visualization&lt;/b&gt;" style="html=1;dropTarget=0;whiteSpace=wrap;fillColor=#1ba1e2;fontColor=#ffffff;strokeColor=#000000;" vertex="1" parent="cVUXGslMiK5kIVUqyIHW-1">
          <mxGeometry x="48.879999999999995" y="132.5" width="155.75" height="50" as="geometry" />
        </mxCell>
        <mxCell id="cVUXGslMiK5kIVUqyIHW-7" value="" style="shape=module;jettyWidth=8;jettyHeight=4;fillColor=#1ba1e2;fontColor=#ffffff;strokeColor=#000000;" vertex="1" parent="cVUXGslMiK5kIVUqyIHW-6">
          <mxGeometry x="1" width="20" height="20" relative="1" as="geometry">
            <mxPoint x="-27" y="7" as="offset" />
          </mxGeometry>
        </mxCell>
        <mxCell id="cVUXGslMiK5kIVUqyIHW-8" value="" style="group" vertex="1" connectable="0" parent="1">
          <mxGeometry x="420" y="350" width="290" height="190" as="geometry" />
        </mxCell>
        <mxCell id="cVUXGslMiK5kIVUqyIHW-9" value="&lt;b&gt;&lt;font style=&quot;font-size: 16px;&quot;&gt;vs251&lt;/font&gt;&lt;/b&gt;&lt;b style=&quot;background-color: initial;&quot;&gt;&lt;font style=&quot;font-size: 16px;&quot;&gt;:2224&lt;/font&gt;&lt;/b&gt;&lt;div&gt;&lt;div&gt;&lt;b&gt;&lt;br&gt;&lt;/b&gt;&lt;/div&gt;&lt;div&gt;&lt;b&gt;&lt;br&gt;&lt;/b&gt;&lt;/div&gt;&lt;div&gt;&lt;b&gt;&lt;br&gt;&lt;/b&gt;&lt;/div&gt;&lt;div&gt;&lt;b&gt;&lt;br&gt;&lt;/b&gt;&lt;/div&gt;&lt;div&gt;&lt;b&gt;&lt;br&gt;&lt;/b&gt;&lt;/div&gt;&lt;div&gt;&lt;br&gt;&lt;/div&gt;&lt;div style=&quot;&quot;&gt;&lt;b&gt;&lt;br&gt;&lt;/b&gt;&lt;/div&gt;&lt;div style=&quot;&quot;&gt;&lt;b&gt;&lt;br&gt;&lt;/b&gt;&lt;/div&gt;&lt;div style=&quot;&quot;&gt;&lt;b&gt;&lt;br&gt;&lt;/b&gt;&lt;/div&gt;&lt;div style=&quot;&quot;&gt;&lt;b&gt;&lt;br&gt;&lt;/b&gt;&lt;/div&gt;&lt;/div&gt;" style="shape=cube;whiteSpace=wrap;html=1;boundedLbl=1;backgroundOutline=1;darkOpacity=0.05;darkOpacity2=0.1;size=10;rotation=0;shadow=0;flipV=0;flipH=1;fillColor=#1ba1e2;fontColor=#ffffff;strokeColor=#000000;" vertex="1" parent="cVUXGslMiK5kIVUqyIHW-8">
          <mxGeometry width="290" height="190" as="geometry" />
        </mxCell>
        <mxCell id="cVUXGslMiK5kIVUqyIHW-10" value="«component»&lt;br&gt;&lt;b&gt;MDBackoffice&lt;/b&gt;" style="html=1;dropTarget=0;whiteSpace=wrap;fillColor=#1ba1e2;fontColor=#ffffff;strokeColor=#000000;" vertex="1" parent="cVUXGslMiK5kIVUqyIHW-8">
          <mxGeometry x="72.28999999999999" y="50" width="145.43" height="50.19" as="geometry" />
        </mxCell>
        <mxCell id="cVUXGslMiK5kIVUqyIHW-11" value="" style="shape=module;jettyWidth=8;jettyHeight=4;fillColor=#1ba1e2;fontColor=#ffffff;strokeColor=#000000;" vertex="1" parent="cVUXGslMiK5kIVUqyIHW-10">
          <mxGeometry x="1" width="20" height="20" relative="1" as="geometry">
            <mxPoint x="-27" y="7" as="offset" />
          </mxGeometry>
        </mxCell>
        <mxCell id="cVUXGslMiK5kIVUqyIHW-45" value="«component»&lt;br&gt;&lt;b&gt;BCP&lt;/b&gt;" style="html=1;dropTarget=0;whiteSpace=wrap;fillColor=#1ba1e2;fontColor=#ffffff;strokeColor=#000000;" vertex="1" parent="cVUXGslMiK5kIVUqyIHW-8">
          <mxGeometry x="72.27999999999997" y="120" width="145.43" height="50.19" as="geometry" />
        </mxCell>
        <mxCell id="cVUXGslMiK5kIVUqyIHW-46" value="" style="shape=module;jettyWidth=8;jettyHeight=4;fillColor=#1ba1e2;fontColor=#ffffff;strokeColor=#000000;" vertex="1" parent="cVUXGslMiK5kIVUqyIHW-45">
          <mxGeometry x="1" width="20" height="20" relative="1" as="geometry">
            <mxPoint x="-27" y="7" as="offset" />
          </mxGeometry>
        </mxCell>
        <mxCell id="cVUXGslMiK5kIVUqyIHW-12" value="" style="group" vertex="1" connectable="0" parent="1">
          <mxGeometry x="170" y="570" width="244" height="220" as="geometry" />
        </mxCell>
        <mxCell id="cVUXGslMiK5kIVUqyIHW-13" value="&lt;b&gt;&lt;font style=&quot;font-size: 16px;&quot;&gt;server2&lt;/font&gt;&lt;/b&gt;&lt;b style=&quot;background-color: initial;&quot;&gt;&lt;font style=&quot;font-size: 16px;&quot;&gt;:??&lt;/font&gt;&lt;/b&gt;&lt;div&gt;&lt;div&gt;&lt;b&gt;&lt;br&gt;&lt;/b&gt;&lt;/div&gt;&lt;div&gt;&lt;b&gt;&lt;br&gt;&lt;/b&gt;&lt;/div&gt;&lt;div&gt;&lt;b&gt;&lt;br&gt;&lt;/b&gt;&lt;/div&gt;&lt;div&gt;&lt;b&gt;&lt;br&gt;&lt;/b&gt;&lt;/div&gt;&lt;div&gt;&lt;b&gt;&lt;br&gt;&lt;/b&gt;&lt;/div&gt;&lt;div&gt;&lt;b&gt;&lt;br&gt;&lt;/b&gt;&lt;/div&gt;&lt;div&gt;&lt;b&gt;&lt;br&gt;&lt;/b&gt;&lt;/div&gt;&lt;div&gt;&lt;b&gt;&lt;br&gt;&lt;/b&gt;&lt;/div&gt;&lt;div style=&quot;&quot;&gt;&lt;b&gt;&lt;br&gt;&lt;/b&gt;&lt;/div&gt;&lt;div style=&quot;&quot;&gt;&lt;b&gt;&lt;br&gt;&lt;/b&gt;&lt;/div&gt;&lt;div style=&quot;&quot;&gt;&lt;b&gt;&lt;br&gt;&lt;/b&gt;&lt;/div&gt;&lt;div style=&quot;&quot;&gt;&lt;br&gt;&lt;/div&gt;&lt;/div&gt;" style="shape=cube;whiteSpace=wrap;html=1;boundedLbl=1;backgroundOutline=1;darkOpacity=0.05;darkOpacity2=0.1;size=10;rotation=0;shadow=0;flipV=0;flipH=1;fillColor=#1ba1e2;fontColor=#ffffff;strokeColor=#000000;movable=1;resizable=1;rotatable=1;deletable=1;editable=1;locked=0;connectable=1;" vertex="1" parent="cVUXGslMiK5kIVUqyIHW-12">
          <mxGeometry width="244" height="220" as="geometry" />
        </mxCell>
        <mxCell id="cVUXGslMiK5kIVUqyIHW-14" value="«component»&lt;br&gt;&lt;b&gt;HttpServer&lt;/b&gt;" style="html=1;dropTarget=0;whiteSpace=wrap;fillColor=#1ba1e2;fontColor=#ffffff;strokeColor=#000000;movable=1;resizable=1;rotatable=1;deletable=1;editable=1;locked=0;connectable=1;" vertex="1" parent="cVUXGslMiK5kIVUqyIHW-12">
          <mxGeometry x="52.28571428571427" y="60" width="139.42857142857142" height="60" as="geometry" />
        </mxCell>
        <mxCell id="cVUXGslMiK5kIVUqyIHW-15" value="" style="shape=module;jettyWidth=8;jettyHeight=4;fillColor=#1ba1e2;fontColor=#ffffff;strokeColor=#000000;" vertex="1" parent="cVUXGslMiK5kIVUqyIHW-14">
          <mxGeometry x="1" width="20" height="20" relative="1" as="geometry">
            <mxPoint x="-27" y="7" as="offset" />
          </mxGeometry>
        </mxCell>
        <mxCell id="cVUXGslMiK5kIVUqyIHW-16" value="Visualization" style="shape=folder;fontStyle=1;spacingTop=10;tabWidth=40;tabHeight=14;tabPosition=left;html=1;whiteSpace=wrap;fillColor=#1BA1E2;strokeColor=#000000;movable=1;resizable=1;rotatable=1;deletable=1;editable=1;locked=0;connectable=1;" vertex="1" parent="cVUXGslMiK5kIVUqyIHW-12">
          <mxGeometry x="69.71428571428572" y="150" width="104.57142857142856" height="50" as="geometry" />
        </mxCell>
        <mxCell id="cVUXGslMiK5kIVUqyIHW-17" value="" style="endArrow=none;startArrow=none;endFill=0;startFill=0;endSize=8;html=1;verticalAlign=bottom;labelBackgroundColor=none;strokeWidth=1;rounded=0;exitX=0;exitY=0;exitDx=135;exitDy=230;exitPerimeter=0;entryX=0.28;entryY=0.002;entryDx=0;entryDy=0;entryPerimeter=0;" edge="1" parent="1">
          <mxGeometry width="160" relative="1" as="geometry">
            <mxPoint x="323.17" y="250" as="sourcePoint" />
            <mxPoint x="322.57" y="570.44" as="targetPoint" />
          </mxGeometry>
        </mxCell>
        <mxCell id="cVUXGslMiK5kIVUqyIHW-18" value="" style="edgeLabel;html=1;align=center;verticalAlign=middle;resizable=0;points=[];fillColor=none;strokeColor=#000000;" vertex="1" connectable="0" parent="cVUXGslMiK5kIVUqyIHW-17">
          <mxGeometry x="-0.1418" y="2" relative="1" as="geometry">
            <mxPoint x="-2" y="-1" as="offset" />
          </mxGeometry>
        </mxCell>
        <mxCell id="cVUXGslMiK5kIVUqyIHW-19" value="" style="endArrow=none;startArrow=none;endFill=0;startFill=0;endSize=8;html=1;verticalAlign=bottom;labelBackgroundColor=none;strokeWidth=1;rounded=0;exitX=0.002;exitY=0.506;exitDx=0;exitDy=0;exitPerimeter=0;entryX=0;entryY=0;entryDx=170;entryDy=0;entryPerimeter=0;" edge="1" parent="1" source="cVUXGslMiK5kIVUqyIHW-2" target="cVUXGslMiK5kIVUqyIHW-9">
          <mxGeometry width="160" relative="1" as="geometry">
            <mxPoint x="630" y="270" as="sourcePoint" />
            <mxPoint x="625" y="520" as="targetPoint" />
            <Array as="points">
              <mxPoint x="540" y="136" />
            </Array>
          </mxGeometry>
        </mxCell>
        <mxCell id="cVUXGslMiK5kIVUqyIHW-20" value="&lt;div&gt;http/s&lt;/div&gt;" style="text;html=1;align=center;verticalAlign=middle;whiteSpace=wrap;rounded=0;fillColor=none;strokeColor=none;" vertex="1" parent="1">
          <mxGeometry x="281" y="378" width="80" height="50" as="geometry" />
        </mxCell>
        <mxCell id="cVUXGslMiK5kIVUqyIHW-21" value="&lt;div&gt;http/s&lt;/div&gt;" style="text;html=1;align=center;verticalAlign=middle;whiteSpace=wrap;rounded=0;fillColor=none;strokeColor=none;" vertex="1" parent="1">
          <mxGeometry x="500" y="200" width="80" height="50" as="geometry" />
        </mxCell>
        <mxCell id="cVUXGslMiK5kIVUqyIHW-22" value="" style="group" vertex="1" connectable="0" parent="1">
          <mxGeometry x="840" y="340" width="260" height="200" as="geometry" />
        </mxCell>
        <mxCell id="cVUXGslMiK5kIVUqyIHW-23" value="&lt;b&gt;&lt;font style=&quot;font-size: 16px;&quot;&gt;server1&lt;/font&gt;&lt;/b&gt;&lt;b style=&quot;background-color: initial;&quot;&gt;&lt;font style=&quot;font-size: 16px;&quot;&gt;:??&lt;/font&gt;&lt;/b&gt;&lt;div&gt;&lt;div&gt;&lt;b&gt;&lt;br&gt;&lt;/b&gt;&lt;/div&gt;&lt;div&gt;&lt;b&gt;&lt;br&gt;&lt;/b&gt;&lt;/div&gt;&lt;div&gt;&lt;b&gt;&lt;br&gt;&lt;/b&gt;&lt;/div&gt;&lt;div&gt;&lt;b&gt;&lt;br&gt;&lt;/b&gt;&lt;/div&gt;&lt;div&gt;&lt;b&gt;&lt;br&gt;&lt;/b&gt;&lt;/div&gt;&lt;div&gt;&lt;b&gt;&lt;br&gt;&lt;/b&gt;&lt;/div&gt;&lt;div&gt;&lt;b&gt;&lt;br&gt;&lt;/b&gt;&lt;/div&gt;&lt;div&gt;&lt;b&gt;&lt;br&gt;&lt;/b&gt;&lt;/div&gt;&lt;div style=&quot;&quot;&gt;&lt;br&gt;&lt;/div&gt;&lt;div style=&quot;&quot;&gt;&lt;b&gt;&lt;br&gt;&lt;/b&gt;&lt;/div&gt;&lt;div style=&quot;&quot;&gt;&lt;b&gt;&lt;br&gt;&lt;/b&gt;&lt;/div&gt;&lt;/div&gt;" style="shape=cube;whiteSpace=wrap;html=1;boundedLbl=1;backgroundOutline=1;darkOpacity=0.05;darkOpacity2=0.1;size=10;rotation=0;shadow=0;flipV=0;flipH=1;fillColor=#1ba1e2;fontColor=#ffffff;strokeColor=#000000;" vertex="1" parent="cVUXGslMiK5kIVUqyIHW-22">
          <mxGeometry width="260" height="200" as="geometry" />
        </mxCell>
        <mxCell id="cVUXGslMiK5kIVUqyIHW-24" value="«component»&lt;br&gt;&lt;b&gt;Planning&lt;/b&gt;" style="html=1;dropTarget=0;whiteSpace=wrap;fillColor=#1ba1e2;fontColor=#ffffff;strokeColor=#000000;" vertex="1" parent="cVUXGslMiK5kIVUqyIHW-22">
          <mxGeometry x="63.43" y="77.78" width="133.14" height="62.22" as="geometry" />
        </mxCell>
        <mxCell id="cVUXGslMiK5kIVUqyIHW-25" value="" style="shape=module;jettyWidth=8;jettyHeight=4;fillColor=#1ba1e2;fontColor=#ffffff;strokeColor=#000000;" vertex="1" parent="cVUXGslMiK5kIVUqyIHW-24">
          <mxGeometry x="1" width="20" height="20" relative="1" as="geometry">
            <mxPoint x="-27" y="7" as="offset" />
          </mxGeometry>
        </mxCell>
        <mxCell id="cVUXGslMiK5kIVUqyIHW-26" value="" style="endArrow=none;startArrow=none;endFill=0;startFill=0;endSize=8;html=1;verticalAlign=bottom;labelBackgroundColor=none;strokeWidth=1;rounded=0;exitX=0;exitY=0;exitDx=0;exitDy=90;exitPerimeter=0;entryX=1.001;entryY=0.494;entryDx=0;entryDy=0;entryPerimeter=0;" edge="1" parent="1" source="cVUXGslMiK5kIVUqyIHW-9" target="cVUXGslMiK5kIVUqyIHW-23">
          <mxGeometry width="160" relative="1" as="geometry">
            <mxPoint x="369" y="146" as="sourcePoint" />
            <mxPoint x="550" y="360" as="targetPoint" />
            <Array as="points" />
          </mxGeometry>
        </mxCell>
        <mxCell id="cVUXGslMiK5kIVUqyIHW-27" value="&lt;div&gt;http/s&lt;/div&gt;" style="text;html=1;align=center;verticalAlign=middle;whiteSpace=wrap;rounded=0;fillColor=none;strokeColor=none;" vertex="1" parent="1">
          <mxGeometry x="732" y="413" width="80" height="50" as="geometry" />
        </mxCell>
        <mxCell id="cVUXGslMiK5kIVUqyIHW-28" value="" style="group" vertex="1" connectable="0" parent="1">
          <mxGeometry x="435" y="650" width="260" height="200" as="geometry" />
        </mxCell>
        <mxCell id="cVUXGslMiK5kIVUqyIHW-29" value="&lt;div&gt;&lt;span style=&quot;font-size: 16px;&quot;&gt;&lt;b&gt;vs1433:VST2&lt;/b&gt;&lt;/span&gt;&lt;/div&gt;&lt;div&gt;&lt;span style=&quot;font-size: 16px;&quot;&gt;&lt;b&gt;&lt;br&gt;&lt;/b&gt;&lt;/span&gt;&lt;/div&gt;&lt;div&gt;&lt;span style=&quot;font-size: 16px;&quot;&gt;&lt;b&gt;&lt;br&gt;&lt;/b&gt;&lt;/span&gt;&lt;/div&gt;&lt;div&gt;&lt;span style=&quot;font-size: 16px;&quot;&gt;&lt;b&gt;&lt;br&gt;&lt;/b&gt;&lt;/span&gt;&lt;/div&gt;&lt;div&gt;&lt;span style=&quot;font-size: 16px;&quot;&gt;&lt;b&gt;&lt;br&gt;&lt;/b&gt;&lt;/span&gt;&lt;/div&gt;&lt;div&gt;&lt;span style=&quot;font-size: 16px;&quot;&gt;&lt;b&gt;&lt;br&gt;&lt;/b&gt;&lt;/span&gt;&lt;/div&gt;&lt;div&gt;&lt;span style=&quot;font-size: 16px;&quot;&gt;&lt;b&gt;&lt;br&gt;&lt;/b&gt;&lt;/span&gt;&lt;/div&gt;&lt;div&gt;&lt;span style=&quot;font-size: 16px;&quot;&gt;&lt;b&gt;&lt;br&gt;&lt;/b&gt;&lt;/span&gt;&lt;/div&gt;" style="shape=cube;whiteSpace=wrap;html=1;boundedLbl=1;backgroundOutline=1;darkOpacity=0.05;darkOpacity2=0.1;size=10;rotation=0;shadow=0;flipV=0;flipH=1;fillColor=#1ba1e2;fontColor=#ffffff;strokeColor=#000000;" vertex="1" parent="cVUXGslMiK5kIVUqyIHW-28">
          <mxGeometry width="260" height="200" as="geometry" />
        </mxCell>
        <mxCell id="cVUXGslMiK5kIVUqyIHW-30" value="" style="shape=cylinder3;whiteSpace=wrap;html=1;boundedLbl=1;backgroundOutline=1;size=15;fillColor=#1BA1E2;strokeColor=#030303;" vertex="1" parent="cVUXGslMiK5kIVUqyIHW-28">
          <mxGeometry x="60" y="90" width="140" height="80" as="geometry" />
        </mxCell>
        <mxCell id="cVUXGslMiK5kIVUqyIHW-31" value="&lt;div&gt;&amp;lt;&amp;lt;Database&amp;gt;&amp;gt;&lt;/div&gt;&lt;div&gt;MySQL&lt;/div&gt;" style="text;html=1;align=center;verticalAlign=middle;whiteSpace=wrap;rounded=0;fillColor=none;strokeColor=none;" vertex="1" parent="cVUXGslMiK5kIVUqyIHW-28">
          <mxGeometry x="90" y="120" width="80" height="50" as="geometry" />
        </mxCell>
        <mxCell id="cVUXGslMiK5kIVUqyIHW-32" value="" style="endArrow=none;startArrow=none;endFill=0;startFill=0;endSize=8;html=1;verticalAlign=bottom;labelBackgroundColor=none;strokeWidth=1;rounded=0;entryX=0;entryY=0;entryDx=125;entryDy=0;entryPerimeter=0;" edge="1" parent="1" target="cVUXGslMiK5kIVUqyIHW-29">
          <mxGeometry width="160" relative="1" as="geometry">
            <mxPoint x="570" y="540" as="sourcePoint" />
            <mxPoint x="910" y="600" as="targetPoint" />
            <Array as="points" />
          </mxGeometry>
        </mxCell>
        <mxCell id="cVUXGslMiK5kIVUqyIHW-33" value="&lt;div&gt;tcp&lt;/div&gt;" style="text;html=1;align=center;verticalAlign=middle;whiteSpace=wrap;rounded=0;fillColor=none;strokeColor=none;" vertex="1" parent="1">
          <mxGeometry x="535" y="580" width="80" height="50" as="geometry" />
        </mxCell>
        <mxCell id="cVUXGslMiK5kIVUqyIHW-34" value="Healthcare System" style="shape=folder;fontStyle=1;spacingTop=3;tabWidth=40;tabHeight=14;tabPosition=left;html=1;whiteSpace=wrap;labelPosition=center;verticalLabelPosition=top;align=center;verticalAlign=bottom;labelBackgroundColor=none;labelBorderColor=none;spacing=-32;fillColor=#1BA1E2;strokeColor=#030303;" vertex="1" parent="1">
          <mxGeometry x="270" y="940" width="540" height="320" as="geometry" />
        </mxCell>
        <mxCell id="cVUXGslMiK5kIVUqyIHW-35" value="MDBackoffice" style="shape=folder;fontStyle=1;spacingTop=10;tabWidth=40;tabHeight=14;tabPosition=left;html=1;whiteSpace=wrap;fillColor=#1BA1E2;strokeColor=#030303;" vertex="1" parent="1">
          <mxGeometry x="310" y="990" width="140" height="80" as="geometry" />
        </mxCell>
        <mxCell id="cVUXGslMiK5kIVUqyIHW-36" value="Planning" style="shape=folder;fontStyle=1;spacingTop=10;tabWidth=40;tabHeight=14;tabPosition=left;html=1;whiteSpace=wrap;fillColor=#1BA1E2;strokeColor=#030303;" vertex="1" parent="1">
          <mxGeometry x="610" y="990" width="140" height="80" as="geometry" />
        </mxCell>
        <mxCell id="cVUXGslMiK5kIVUqyIHW-37" value="Visualization" style="shape=folder;fontStyle=1;spacingTop=10;tabWidth=40;tabHeight=14;tabPosition=left;html=1;whiteSpace=wrap;fillColor=#1BA1E2;strokeColor=#030303;" vertex="1" parent="1">
          <mxGeometry x="310" y="1140" width="140" height="80" as="geometry" />
        </mxCell>
        <mxCell id="cVUXGslMiK5kIVUqyIHW-38" value="" style="html=1;verticalAlign=bottom;endArrow=open;dashed=1;endSize=8;curved=0;rounded=0;entryX=-0.001;entryY=0.545;entryDx=0;entryDy=0;entryPerimeter=0;exitX=0.994;exitY=0.55;exitDx=0;exitDy=0;exitPerimeter=0;strokeColor=#030303;" edge="1" parent="1" source="cVUXGslMiK5kIVUqyIHW-35" target="cVUXGslMiK5kIVUqyIHW-36">
          <mxGeometry relative="1" as="geometry">
            <mxPoint x="910" y="1100" as="sourcePoint" />
            <mxPoint x="570" y="1100" as="targetPoint" />
          </mxGeometry>
        </mxCell>
        <mxCell id="cVUXGslMiK5kIVUqyIHW-39" value="" style="html=1;verticalAlign=bottom;endArrow=open;dashed=1;endSize=8;curved=0;rounded=0;entryX=0.5;entryY=1;entryDx=0;entryDy=0;entryPerimeter=0;exitX=0.506;exitY=0.204;exitDx=0;exitDy=0;exitPerimeter=0;strokeColor=#030303;" edge="1" parent="1" source="cVUXGslMiK5kIVUqyIHW-37" target="cVUXGslMiK5kIVUqyIHW-35">
          <mxGeometry relative="1" as="geometry">
            <mxPoint x="640" y="1047" as="sourcePoint" />
            <mxPoint x="460" y="1047" as="targetPoint" />
          </mxGeometry>
        </mxCell>
        <mxCell id="cVUXGslMiK5kIVUqyIHW-40" value="BCP" style="shape=folder;fontStyle=1;spacingTop=10;tabWidth=40;tabHeight=14;tabPosition=left;html=1;whiteSpace=wrap;fillColor=#1BA1E2;strokeColor=#030303;" vertex="1" parent="1">
          <mxGeometry x="614" y="1150" width="140" height="80" as="geometry" />
        </mxCell>
        <mxCell id="cVUXGslMiK5kIVUqyIHW-43" value="" style="endArrow=block;startArrow=none;endFill=0;startFill=0;endSize=8;html=1;verticalAlign=bottom;dashed=1;labelBackgroundColor=none;rounded=0;exitX=0.75;exitY=1;exitDx=0;exitDy=0;entryX=0;entryY=0;entryDx=140;entryDy=30.5;entryPerimeter=0;" edge="1" parent="1" source="cVUXGslMiK5kIVUqyIHW-10" target="cVUXGslMiK5kIVUqyIHW-35">
          <mxGeometry width="160" relative="1" as="geometry">
            <mxPoint x="1328" y="310" as="sourcePoint" />
            <mxPoint x="1350" y="1294" as="targetPoint" />
            <Array as="points">
              <mxPoint x="790" y="510" />
              <mxPoint x="790" y="630" />
              <mxPoint x="790" y="840" />
            </Array>
          </mxGeometry>
        </mxCell>
        <mxCell id="cVUXGslMiK5kIVUqyIHW-42" value="" style="endArrow=block;startArrow=none;endFill=0;startFill=0;endSize=8;html=1;verticalAlign=bottom;dashed=1;labelBackgroundColor=none;rounded=0;exitX=0;exitY=0;exitDx=0;exitDy=32;entryX=0;entryY=0;entryDx=0;entryDy=63.5;entryPerimeter=0;exitPerimeter=0;" edge="1" parent="1" source="cVUXGslMiK5kIVUqyIHW-16" target="cVUXGslMiK5kIVUqyIHW-37">
          <mxGeometry width="160" relative="1" as="geometry">
            <mxPoint x="268" y="340" as="sourcePoint" />
            <mxPoint x="290" y="1324" as="targetPoint" />
            <Array as="points">
              <mxPoint x="170" y="860" />
            </Array>
          </mxGeometry>
        </mxCell>
        <mxCell id="cVUXGslMiK5kIVUqyIHW-41" value="" style="endArrow=block;startArrow=none;endFill=0;startFill=0;endSize=8;html=1;verticalAlign=bottom;dashed=1;labelBackgroundColor=none;rounded=0;exitX=0.25;exitY=1;exitDx=0;exitDy=0;entryX=0;entryY=0;entryDx=0;entryDy=47;entryPerimeter=0;" edge="1" parent="1" source="cVUXGslMiK5kIVUqyIHW-6" target="cVUXGslMiK5kIVUqyIHW-37">
          <mxGeometry width="160" relative="1" as="geometry">
            <mxPoint x="710" y="810" as="sourcePoint" />
            <mxPoint x="870" y="810" as="targetPoint" />
            <Array as="points">
              <mxPoint x="60" y="690" />
            </Array>
          </mxGeometry>
        </mxCell>
        <mxCell id="cVUXGslMiK5kIVUqyIHW-44" value="" style="endArrow=block;startArrow=none;endFill=0;startFill=0;endSize=8;html=1;verticalAlign=bottom;dashed=1;labelBackgroundColor=none;rounded=0;exitX=0.5;exitY=1;exitDx=0;exitDy=0;entryX=0;entryY=0;entryDx=140;entryDy=47;entryPerimeter=0;" edge="1" parent="1" source="cVUXGslMiK5kIVUqyIHW-24" target="cVUXGslMiK5kIVUqyIHW-36">
          <mxGeometry width="160" relative="1" as="geometry">
            <mxPoint x="921" y="529" as="sourcePoint" />
            <mxPoint x="770" y="1070" as="targetPoint" />
            <Array as="points">
              <mxPoint x="970" y="690" />
            </Array>
          </mxGeometry>
        </mxCell>
        <mxCell id="cVUXGslMiK5kIVUqyIHW-47" value="" style="endArrow=block;startArrow=none;endFill=0;startFill=0;endSize=8;html=1;verticalAlign=bottom;dashed=1;labelBackgroundColor=none;rounded=0;exitX=1;exitY=0.75;exitDx=0;exitDy=0;entryX=0;entryY=0;entryDx=140;entryDy=63.5;entryPerimeter=0;" edge="1" parent="1" source="cVUXGslMiK5kIVUqyIHW-45" target="cVUXGslMiK5kIVUqyIHW-40">
          <mxGeometry width="160" relative="1" as="geometry">
            <mxPoint x="611" y="550" as="sourcePoint" />
            <mxPoint x="460" y="1121" as="targetPoint" />
            <Array as="points">
              <mxPoint x="800" y="610" />
              <mxPoint x="800" y="730" />
              <mxPoint x="800" y="940" />
            </Array>
          </mxGeometry>
        </mxCell>
      </root>
    </mxGraphModel>
  </diagram>
</mxfile>
